<?xml version="1.0" encoding="UTF-8" standalone="yes"?><svg xmlns="http://www.w3.org/2000/svg" xmlns:xlink="http://www.w3.org/1999/xlink" width="256.000mm" height="160.000mm" viewBox="0.000000 0.000000 256.000000 160.000000" stroke-linejoin="round" stroke-linecap="round" fill="none" fill-rule="evenodd"><desc>Composer Export</desc><script type="text/ecmascript"><![CDATA[
if(typeof(top) != "undefined")
{
	top.ShowPaper = ShowPaper;
}
function ShowHotSpot(evt,hotspotid)
{
	var svgDocument = evt.target.ownerDocument;
	var strId = "hotspot."+hotspotid;
	var hotspot = svgDocument.getElementById(strId);
	if(hotspot)
		hotspot.setAttribute("opacity",".5");
}
function HideHotSpot(evt,hotspotid)
{
	var svgDocument = evt.target.ownerDocument;
	var strId = "hotspot."+hotspotid;
	var hotspot = svgDocument.getElementById(strId);
	if(hotspot)
		hotspot.setAttribute("opacity","0");

	var toolTip = svgDocument.getElementById('ToolTip');
	if(toolTip)
		toolTip.setAttribute("visibility","hidden");
}
function ShowToolTip(evt,hotspotid,strTooltip)
{
	if(strTooltip=="")
	return;

	// change text
	var svgDocument = evt.target.ownerDocument;
	var tiptext = svgDocument.getElementById('ToolTipText');
	if( !tiptext )
	return;
	tiptext.firstChild.nodeValue = " " + strTooltip + "  " ;

	// show tooltip before, else some refresh issue

	var toolTip = svgDocument.getElementById('ToolTip');
	if(!toolTip)
	return;

	toolTip.setAttribute("visibility","visible");
	toolTip.setAttribute("opacity",".95");

	// move tooltip
	// get viewbox

	var root = svgDocument.documentElement;
	var vbox = (root.getAttribute("viewBox")).split(' ');
	var x0 = parseFloat(vbox[0]);
	var y0 = parseFloat(vbox[1]);
	var vboxW = parseFloat(vbox[2]);
	var vboxH = parseFloat(vbox[3]);

	// get default width of svg

	var strW = root.getAttribute("width");
	var svgW = parseFloat(strW);
	if(strW.indexOf('mm') != -1)
	svgW *= 3.779;

	var strH = root.getAttribute("height");
	var svgH = parseFloat(strH);
	if(strH.indexOf('mm') != -1)
	svgH *= 3.779;  	// 96 dpi  -> 96/25.4 = 3.779

	// update the viewbox / width / height if svg is embedded in html with zoom fit all
	var realx0 = x0;
	var realy0 = y0;
	var realvboxW = vboxW;
	var realvboxH = vboxH;
	var realsvgW = svgW;
	var realsvgH = svgH;

	if ((typeof(top) == "undefined") || (typeof(top.svgctl1) != "undefined")) // embedded in html
	{
		// get window size in pxl

		svgW = window.innerWidth;
		svgH = window.innerHeight;

		// calculate real viewbox

		realsvgW = svgW;
		realsvgH = svgH;
		if((svgW / svgH) > (vboxW / vboxH))
		{
			realvboxW = (vboxH * svgW) / svgH;
			realvboxH = vboxH;
			realx0 = x0 - (realvboxW - vboxW)/2 ;
		}
		else
		{
			realvboxH = (vboxW * svgH) / svgW;
			realvboxW = vboxW;
			realy0 = y0 - (realvboxH - vboxH)/2 ;
		}
	}

	// get user zoom/pan

	var newScale = root.currentScale;
	var translation = root.currentTranslate;

	// transform pxl to user unit

	var xPos = (((evt.clientX+10- translation.x)/newScale) * realvboxW)/realsvgW  + realx0 ;
	var yPos = (((evt.clientY+5- translation.y)/newScale) * realvboxH)/ realsvgH  + realy0 ;
	var scaleForWidth = ( (1 / newScale) * realvboxH) / realsvgH;

	// move tooltip

	toolTip.setAttribute("transform", "translate(" + xPos + "," + yPos + ")" );

	// resize tooltip

	var fontsize = 12;
	tiptext.setAttribute("font-size",fontsize*scaleForWidth);
	tiptext.setAttribute("y", fontsize*scaleForWidth);
	var tipBG = svgDocument.getElementById('ToolTipBG');
	var outline = tiptext.getBBox();
	if(tipBG)
	{
		tipBG.setAttribute("stroke-width", 1*scaleForWidth);
		tipBG.setAttribute("width", Number(outline.width) );
		tipBG.setAttribute("height", Number(outline.height) + fontsize*.5*scaleForWidth );
	}
	var ToolTipShadow = svgDocument.getElementById('ToolTipShadow');
	if(ToolTipShadow)
	{
		ToolTipShadow.setAttribute("width", Number(outline.width) );
		ToolTipShadow.setAttribute("height", Number(outline.height) + fontsize*.5*scaleForWidth );
		ToolTipShadow.setAttribute("x", 3*scaleForWidth);
		ToolTipShadow.setAttribute("y", 3*scaleForWidth);
	}
}
function ShowPaper()
{
  var svgDocument = getDocument();
  var paper = svgDocument.getElementById("paperID");
  if(paper)
  {
    paper.setAttribute("transform","scale(1)");
    paper.setAttribute("opacity","1");
    paper.setAttribute("visibility","visible");
  }
  var svg = svgDocument.getRootElement();
  if(svg)
  {
    svg.setAttribute("width","266.000mm");
    svg.setAttribute("height","170.000mm");
    svg.setAttribute("viewBox","-5.000000 -5.000000 266.000000 170.000000");
  }
}
]]></script><defs/><g><g id="Actor_10.0"><g style="stroke:#000000;stroke-width:0.088"><path d="M114.05,103.43L111.49,101.95L101.12,95.17L100.46,88.00L100.39,87.12L100.19,86.19L88.53,45.02L88.94,44.16L109.53,32.27L121.86,33.82L101.27,45.71L88.94,44.16"/><path d="M93.67,54.91L93.77,55.19L94.30,56.14L94.95,56.98L95.68,57.67L96.45,58.14L97.20,58.37L97.87,58.34L98.44,58.06L98.84,57.54L99.06,56.82L99.09,55.95L98.91,54.98L98.55,53.99L98.03,53.04L97.37,52.20L96.64,51.52L95.87,51.04L95.12,50.81L94.45,50.84L93.89,51.12L93.48,51.64L93.26,52.36L93.23,53.23L93.41,54.20L93.67,54.91"/><path d="M93.24,53.12L93.26,52.20L93.49,51.45L93.91,50.91L94.50,50.61L95.20,50.59L95.98,50.83L96.47,51.12L96.78,51.32L97.55,52.03L98.23,52.91L98.77,53.90L99.15,54.93L99.33,55.93L99.31,56.80L99.07,57.59L98.65,58.13L98.07,58.43L97.36,58.45L96.58,58.21L96.45,58.14"/><path d="M93.23,53.23L93.23,53.11"/><path d="M94.56,54.99L94.32,54.33L94.20,53.68L94.22,53.10L94.37,52.62L94.64,52.27L95.02,52.08L95.47,52.06L95.97,52.22L96.48,52.53L96.97,52.99L97.41,53.55L97.76,54.19L98.00,54.85L98.12,55.50L98.10,56.08L97.95,56.56L97.68,56.91L97.31,57.10L96.85,57.12L96.35,56.96L95.84,56.65L95.35,56.19L94.91,55.63L94.56,54.99"/><path d="M98.11,55.47L98.11,55.74L97.98,56.16L97.74,56.47L97.41,56.63L97.02,56.65L96.58,56.51L96.13,56.24L95.70,55.84L95.32,55.35L95.02,54.79L94.81,54.22L94.70,53.65L94.72,53.15L94.85,52.73L95.09,52.42L95.41,52.26L95.81,52.24L96.21,52.36"/><path d="M98.65,58.13L99.98,57.37L100.40,56.83L100.63,56.08L100.66,55.17L100.47,54.16L100.10,53.13L99.56,52.15L98.87,51.26L98.11,50.55L97.31,50.06L96.53,49.82L95.82,49.85L95.24,50.14L93.91,50.91"/><path d="M96.81,65.71L96.80,65.84L96.98,66.80L97.34,67.79L97.87,68.74L98.52,69.59L99.25,70.27L100.02,70.74L100.77,70.97L101.45,70.94L102.01,70.66L102.41,70.14L102.63,69.42L102.66,68.55L102.48,67.59L102.12,66.60L101.60,65.65L100.94,64.80L100.21,64.12L99.44,63.65L98.69,63.42L98.02,63.45L97.46,63.73L97.05,64.25L96.83,64.97L96.81,65.73"/><path d="M96.80,65.84L96.83,64.80L97.06,64.05L97.49,63.51L98.81,62.75L99.39,62.45L100.10,62.43L100.88,62.67L101.45,63.02L101.68,63.16L102.44,63.87L103.12,64.75L103.67,65.74L104.04,66.77L104.23,67.77L104.20,68.68L103.97,69.43L103.55,69.97L102.22,70.73L101.64,71.03L100.93,71.06L100.16,70.82L100.02,70.74"/><path d="M97.49,63.51L98.07,63.22L98.77,63.19L99.56,63.43L100.35,63.92L101.12,64.63L101.80,65.51L102.34,66.50L102.72,67.53L102.90,68.54L102.88,69.44L102.65,70.19L102.22,70.73"/><path d="M98.48,68.23L98.13,67.59L97.89,66.93L97.77,66.29L97.79,65.70L97.94,65.22L98.21,64.88L98.59,64.69L99.04,64.67L99.54,64.82L100.05,65.14L100.54,65.59L100.98,66.16L101.33,66.79L101.57,67.46L101.69,68.10L101.67,68.68L101.52,69.17L101.25,69.51L100.88,69.70L100.43,69.72L99.93,69.57L99.41,69.25L98.92,68.79L98.48,68.23"/><path d="M101.68,68.07L101.68,68.35L101.55,68.77L101.31,69.07L100.98,69.24L100.59,69.25L100.15,69.12L99.70,68.84L99.28,68.45L98.89,67.95L98.59,67.40L98.38,66.82L98.28,66.26L98.29,65.75L98.42,65.33L98.66,65.03L98.98,64.86L99.38,64.85L99.78,64.97"/><path d="M98.61,43.94L98.76,43.56L99.16,43.16L99.78,42.74L100.56,42.35L101.46,42.01L102.42,41.73L103.37,41.55L104.24,41.47L104.98,41.50L105.54,41.64L105.88,41.87L105.92,42.03L105.83,41.71L105.50,41.48L104.94,41.34L104.20,41.32L103.32,41.39L102.37,41.58L101.41,41.85L100.51,42.19L99.70,42.60L99.12,43.00L98.72,43.41L98.56,43.78L98.65,44.09L98.99,44.32L99.56,44.46L100.29,44.49L101.16,44.41L102.11,44.22L103.07,43.95L103.97,43.61L104.75,43.22L105.36,42.80L105.76,42.40L105.92,42.03"/><path d="M99.32,40.35L99.20,40.24L99.21,40.27L99.18,40.30L99.05,40.36L98.92,40.38L98.81,40.35L98.78,40.32L98.76,40.23L98.75,40.01L98.65,40.00L97.95,40.40L98.12,40.43L98.49,40.21L98.61,40.26L98.60,40.26"/><path d="M98.65,40.48L98.62,40.27L98.61,40.26L98.70,40.20L98.65,40.00"/><path d="M98.49,40.21L98.52,40.37L98.55,40.43L98.64,40.47L98.71,40.49L98.98,40.47L99.27,40.38L99.39,40.31L99.46,40.24L99.48,40.18L99.44,40.13L99.31,40.10L99.35,40.31L99.30,40.33"/><path d="M99.31,40.10L99.11,40.21L99.20,40.24"/><path d="M98.75,40.01L98.70,40.20L98.71,40.41L98.73,40.49"/><path d="M99.18,39.91L99.09,39.97L99.06,39.97L98.96,39.94L98.94,39.92L98.93,39.86L99.01,39.77L99.20,39.68L99.42,39.61L99.60,39.59L99.71,39.59L99.82,39.62L100.13,39.89L99.86,39.98L99.69,39.83L99.47,39.92L99.16,39.97L99.20,39.81L99.21,39.83L99.24,39.85L99.37,39.85L99.52,39.81L99.59,39.75L99.59,39.73L99.56,39.71L99.42,39.71L99.27,39.75L99.20,39.81"/><path d="M99.16,39.97L99.09,39.97"/><path d="M99.35,40.31L99.37,40.32"/><path d="M100.38,78.33L100.40,77.63L100.38,78.44L100.55,79.41L100.91,80.40L101.44,81.35L102.09,82.19L102.82,82.87L103.59,83.34L104.34,83.58L105.02,83.55L105.58,83.27L105.98,82.75L106.20,82.03L106.22,81.42L106.23,81.15L106.05,80.19L105.69,79.20L105.17,78.25L104.52,77.41L103.78,76.72L103.01,76.25L102.27,76.02L101.59,76.05L101.03,76.33L100.62,76.85L100.40,77.57L100.40,77.63L100.40,77.41L100.63,76.66L101.06,76.12L101.64,75.82L102.35,75.79L103.12,76.03L103.92,76.52L104.69,77.23L105.37,78.11L105.91,79.10L106.19,79.86L106.29,80.14L106.47,81.14L106.45,82.05L106.22,82.80L105.79,83.34L105.21,83.63L104.50,83.66L103.73,83.42L103.59,83.34"/><path d="M100.38,78.44L100.38,78.32"/><path d="M99.93,39.95L99.77,39.82L99.65,39.79"/><path d="M99.70,39.84L99.73,39.86L99.59,39.73"/><path d="M101.02,39.23L100.81,39.35L99.96,39.24L99.76,39.36L100.79,39.49L101.08,39.32L101.02,39.23L101.01,39.35"/><path d="M99.96,39.24L99.98,39.39"/><path d="M103.35,77.57L103.11,77.43L102.61,77.27L102.16,77.29L101.78,77.48L101.51,77.83L101.36,78.31L101.35,78.89L101.46,79.54L101.70,80.20L102.06,80.83L102.49,81.40L102.98,81.85L103.50,82.17L104.00,82.32L104.45,82.31L104.82,82.12L105.09,81.77L105.24,81.29L105.26,80.71L105.14,80.06L104.90,79.40L104.55,78.76L104.11,78.20L103.62,77.74L103.35,77.57L102.95,77.45L102.55,77.47L102.23,77.63L101.99,77.93L101.86,78.35L101.85,78.86L101.95,79.42L102.16,80.00L102.47,80.56L102.85,81.05L103.27,81.45L103.72,81.72L104.16,81.86L104.55,81.84L104.88,81.68L105.12,81.37L105.24,80.96L105.25,80.68"/><path d="M105.79,83.34L107.12,82.57L107.54,82.03L107.77,81.28L107.80,80.38L107.62,79.37L107.24,78.34L106.69,77.35L106.01,76.47L105.25,75.76L104.45,75.27L103.67,75.03L102.96,75.06L102.38,75.35L101.06,76.12"/><path d="M101.27,45.71L102.22,46.74L102.72,47.53L103.29,48.23L103.91,48.82L104.57,49.28L105.03,49.55L105.34,49.78L105.55,50.04L105.64,50.33L106.18,55.85L106.48,56.80L107.16,57.69L108.20,58.45L121.25,64.62L122.27,65.21L123.77,66.39L126.08,68.80L128.08,71.67L129.65,74.82L130.67,78.03L131.09,81.11L130.87,83.86L130.04,86.09L128.63,87.66L126.76,88.47L124.53,88.47L123.98,88.35L122.99,88.09L121.90,87.77L115.26,85.70L114.99,85.70L114.76,85.79L114.58,85.97L114.53,86.07L114.47,86.23L114.45,86.55L114.56,87.23L119.11,106.92L120.07,107.47L141.64,95.02L142.60,93.35L145.85,75.49"/><path d="M103.82,42.90L103.89,42.83L103.96,42.66L103.92,42.52L103.77,42.41L103.51,42.35L103.17,42.34L102.78,42.37L102.35,42.46L101.91,42.58L101.50,42.74L101.14,42.91L100.87,43.10L100.68,43.29L100.61,43.46L100.65,43.60L100.81,43.70L101.06,43.77L101.40,43.78L101.80,43.74L102.23,43.66L102.66,43.54L103.07,43.38L103.43,43.20L103.71,43.01L103.82,42.90L103.78,42.77L103.64,42.68L103.42,42.62L103.12,42.61L102.77,42.64L102.40,42.72L102.01,42.83L101.65,42.96L101.45,43.06L101.34,43.12L101.09,43.29L100.93,43.45L100.87,43.60L100.91,43.73"/><path d="M100.81,39.35L100.83,39.46"/><path d="M101.06,38.82L100.70,39.02L100.87,39.04L101.22,38.84L101.06,38.82L101.07,38.92"/><path d="M101.76,38.27L101.67,38.26L100.96,38.66L101.13,38.69L101.50,38.47L101.53,38.64L101.60,38.71L101.72,38.75L101.92,38.74L102.14,38.69L102.34,38.61L102.45,38.53L102.49,38.47L102.49,38.44L102.45,38.40L102.32,38.36L102.12,38.47L102.19,38.49L102.22,38.52L102.21,38.54L102.17,38.58L102.00,38.63L101.86,38.63L101.80,38.58L101.77,38.49L101.76,38.27L101.71,38.46L101.72,38.67L101.74,38.75"/><path d="M102.32,38.36L102.36,38.57L102.38,38.58"/><path d="M101.50,38.47L101.64,38.53L101.66,38.74"/><path d="M102.36,38.57L102.31,38.59"/><path d="M101.93,38.17L101.92,38.15L101.94,38.10L102.07,38.01L102.27,37.91L102.51,37.86L102.76,37.85L102.96,37.86L103.23,37.92L103.28,37.96L103.29,38.00L103.23,38.09L103.09,38.17L102.88,38.25L102.73,38.28L102.48,38.30L102.25,38.28L102.01,38.23L101.93,38.17"/><path d="M102.08,38.25L102.18,38.17"/><path d="M102.15,38.26L102.16,38.24"/><path d="M102.37,37.98L102.24,38.04L102.21,38.07L102.21,38.10L102.33,38.15L102.45,38.17L102.72,38.18L102.92,38.14L103.00,38.09L103.02,38.06L102.98,38.02L102.76,37.98L102.51,37.96L102.37,37.98"/><path d="M101.67,38.26L101.71,38.46L101.61,38.52"/><path d="M102.16,38.25L102.21,38.07"/><path d="M102.33,38.61L102.21,38.50"/><path d="M103.19,38.12L103.06,38.08"/><path d="M103.13,38.15L103.01,38.04"/><path d="M103.31,37.39L103.08,37.45L102.87,37.54L102.75,37.64L102.73,37.68L102.74,37.71L102.82,37.76L103.06,37.81L103.29,37.83L103.53,37.82L103.69,37.79L103.89,37.71L104.04,37.62L104.10,37.53L104.09,37.50L104.04,37.46L103.77,37.40L103.56,37.38L103.31,37.39"/><path d="M102.88,37.78L102.98,37.71"/><path d="M102.97,37.77L102.96,37.80"/><path d="M102.96,37.79L103.02,37.60L103.09,37.55L103.17,37.52L103.32,37.50L103.57,37.51L103.78,37.56L103.83,37.59L103.81,37.63L103.72,37.68L103.52,37.71L103.13,37.68L103.05,37.66L103.02,37.64L103.01,37.61"/><path d="M103.95,90.92L103.97,90.17L104.19,89.45L104.60,88.94L105.16,88.65L105.84,88.63L106.58,88.86L107.35,89.33L108.09,90.01L108.74,90.85L109.26,91.80L109.63,92.79L109.80,93.76L109.77,94.63L109.55,95.35L109.15,95.87L108.59,96.15L108.09,96.17L107.91,96.18L107.16,95.95L106.39,95.48L105.66,94.80L105.01,93.95L104.48,93.00L104.12,92.01L103.95,91.05L103.95,90.92L103.95,90.93"/><path d="M103.95,91.05L103.97,90.01L104.20,89.26L104.63,88.72L105.21,88.43L105.92,88.40L106.69,88.64L107.27,88.99L107.49,89.13L108.26,89.84L108.94,90.72L109.49,91.71L109.86,92.74L110.04,93.74L110.02,94.65L109.79,95.40L109.36,95.94L108.78,96.24L108.08,96.27L107.30,96.03L107.16,95.95"/><path d="M103.88,37.30L104.23,37.10L104.06,37.08L103.71,37.28L103.88,37.30"/><path d="M104.06,37.08L104.08,37.18"/><path d="M103.99,37.65L103.86,37.62"/><path d="M103.81,37.57L103.94,37.68"/><path d="M104.30,36.74L104.17,36.81L105.20,36.94L105.24,36.91L105.22,36.80L104.37,36.70L104.30,36.74"/><path d="M104.98,91.83L105.03,92.14L105.27,92.80L105.63,93.44L106.06,94.00L106.55,94.46L107.07,94.77L107.57,94.93L108.02,94.91L108.39,94.72L108.66,94.37L108.81,93.89L108.83,93.31L108.71,92.66L108.47,92.00L108.12,91.37L107.68,90.80L107.19,90.35L106.68,90.03L106.18,89.88L105.73,89.90L105.35,90.08L105.08,90.43L104.93,90.91L104.92,91.50L104.98,91.83"/><path d="M104.63,88.72L105.95,87.96L106.53,87.66L107.24,87.63L108.02,87.87L108.82,88.36L109.58,89.07L110.26,89.95L110.81,90.94L111.19,91.98L111.37,92.98L111.34,93.89L111.11,94.64L110.69,95.18L109.36,95.94"/><path d="M105.24,36.91L105.49,36.78L105.44,36.68L105.22,36.80"/><path d="M104.37,36.70L104.39,36.84"/><path d="M106.92,90.18L106.52,90.05L106.12,90.07L105.80,90.24L105.56,90.54L105.43,90.96L105.42,91.47L105.52,92.03L105.73,92.61L106.04,93.16L106.42,93.65L106.85,94.05L107.29,94.33L107.73,94.46L108.12,94.44L108.45,94.28L108.69,93.98L108.82,93.56L108.82,93.28"/><path d="M105.48,56.42L105.64,56.39L105.67,56.47L105.70,56.69L106.04,60.06L106.18,61.68L106.29,62.37L106.48,63.00L106.70,63.58L107.16,64.60L108.20,66.65L108.42,67.13L109.09,68.94L109.43,70.47L109.53,71.78L109.53,83.18L109.66,84.40L114.12,103.73L119.11,106.92"/><path d="M105.44,36.68L105.43,36.81"/><path d="M108.12,94.44L108.48,94.24"/><path d="M108.20,58.45L120.92,67.26L122.23,68.29L124.26,70.40L126.01,72.91L127.38,75.66L128.27,78.48L128.64,81.17L128.45,83.57L127.72,85.52L126.49,86.90L124.85,87.61L122.90,87.61L122.42,87.51L115.67,85.84"/><path d="M128.63,87.66L136.97,82.85L138.37,81.27L139.21,79.04L139.42,76.30L139.01,73.22L137.98,70.01L136.42,66.86L135.82,65.91L133.86,64.31L132.42,63.21L131.01,62.21L128.81,60.79L128.34,60.53L127.39,60.12L126.37,59.81L126.14,59.76L125.13,59.60L124.82,59.57L121.43,59.14L117.90,58.17L114.87,56.74L112.50,54.94L110.95,52.87L110.28,50.64L110.55,48.39L111.74,46.23L113.78,44.30L116.54,42.71L119.88,41.53L118.55,42.07L118.99,41.98L119.92,41.96L120.71,42.12L121.99,42.48L123.84,42.85L124.46,43.00L125.01,43.21L125.57,43.52L126.09,43.91L127.03,44.91L128.56,46.93L129.83,48.45L130.77,49.45L131.74,50.37L132.57,51.03L133.42,51.60L134.26,52.04L135.08,52.37L136.03,52.61L136.94,52.72L138.87,52.73L139.24,52.76L140.08,52.88L141.00,53.15"/><path d="M110.88,36.92L110.91,37.02L111.24,37.25L111.80,37.38L112.54,37.41L113.42,37.33L114.36,37.15L115.32,36.88L116.22,36.53L117.01,36.14L117.62,35.73L118.02,35.32L118.18,34.95L118.09,34.64L117.75,34.40L117.57,34.36L117.19,34.27L116.45,34.24L115.58,34.32L114.63,34.50L113.67,34.77L112.77,35.12L111.98,35.51L111.37,35.92L110.97,36.33L110.81,36.70L110.88,36.92"/><path d="M118.18,34.95L118.13,34.79L117.79,34.56L117.24,34.43L116.49,34.40L115.67,34.47L114.67,34.66L113.71,34.93L112.81,35.27L112.03,35.67L111.42,36.08L111.02,36.49L110.86,36.86"/><path d="M117.86,58.15L117.04,57.37L116.10,56.37L114.83,54.85L113.30,52.83L112.74,51.98L112.32,51.16L112.07,50.39L111.98,49.70L111.98,47.16L112.03,46.58L112.13,46.21L112.32,45.82L112.58,45.49L111.74,46.23"/><path d="M111.98,49.23L111.98,48.28"/><path d="M114.06,44.73L113.30,45.04L112.91,45.23"/><path d="M113.17,36.65L113.31,36.69L113.65,36.70L114.05,36.67L114.48,36.58L114.92,36.46L115.33,36.30L115.68,36.13L115.96,35.94L116.07,35.83L116.03,35.70L115.90,35.60L115.67,35.55L115.38,35.54L115.03,35.57L114.65,35.64L114.26,35.75L113.90,35.89L113.59,36.05L113.34,36.21L113.18,36.37L113.12,36.52L113.17,36.65L113.06,36.63L112.91,36.52L112.87,36.38L112.94,36.21L113.12,36.03L113.40,35.84L113.76,35.66L114.16,35.50L114.60,35.38L115.03,35.30L115.43,35.26L115.77,35.28L116.02,35.34L116.17,35.44L116.21,35.58L116.14,35.75L116.07,35.83"/><path d="M125.68,79.21L125.64,80.47L125.68,79.22L125.34,77.37L124.65,75.48L123.64,73.65L122.39,72.04L120.99,70.73L119.51,69.83L118.08,69.38L116.78,69.44L115.71,69.98L114.93,70.97L114.51,72.35L114.46,74.02L114.79,75.87L115.49,77.77L116.49,79.59L117.74,81.21L119.15,82.52L120.62,83.42L122.06,83.86L123.35,83.81L124.43,83.27L125.20,82.27L125.63,80.89L125.64,80.47L125.63,80.73L125.21,82.08L124.45,83.05L123.40,83.58L122.13,83.63L120.73,83.20L119.29,82.32L117.92,81.04L116.69,79.46L115.71,77.68L115.03,75.82L114.70,74.01L114.75,72.38L115.17,71.03L115.93,70.05L116.98,69.52L118.25,69.47L119.63,69.90"/><path d="M115.67,55.19L115.60,55.19L115.38,55.12L115.28,55.06L115.16,54.93L115.06,54.78L115.00,54.66L114.93,54.29L114.94,53.86L115.03,53.39L115.20,52.89L115.43,52.39L115.72,51.91L116.06,51.47L116.43,51.10L116.88,50.77L117.17,50.64L117.32,50.59L117.49,50.56L117.82,50.58L118.15,50.67L118.25,50.72L118.45,50.84L118.69,51.08L118.86,51.39L118.93,51.72L118.93,51.96L118.91,52.09L118.79,52.45L118.61,52.82L118.41,53.11L117.93,53.68L117.41,54.19L116.89,54.64L116.72,54.77L116.35,55.02L115.99,55.16L115.67,55.19"/><path d="M114.85,53.84L114.79,54.49L114.82,54.84"/><path d="M115.41,44.05L116.76,43.17L117.52,42.60L118.13,42.23L116.62,42.68"/><path d="M117.43,81.74L117.44,81.80L117.39,81.52L117.30,81.27L117.17,81.03L117.00,80.81L116.82,80.64L116.63,80.52L116.44,80.47L116.27,80.47L116.13,80.54L116.02,80.67L115.97,80.86L115.96,81.08L116.00,81.32L116.10,81.57L116.23,81.81L116.39,82.02L116.58,82.19L116.77,82.31L116.96,82.37L117.13,82.36L117.27,82.29L117.37,82.16L117.43,81.98L117.44,81.80L117.39,81.96L117.30,82.07L117.18,82.12L117.04,82.13L116.89,82.08L116.73,81.98L116.57,81.84L116.44,81.67L116.33,81.47L116.25,81.26L116.22,81.06L116.22,80.88L116.27,80.73L116.35,80.62L116.47,80.56L116.61,80.56L116.75,80.60"/><path d="M116.62,68.74L116.39,68.54L116.23,68.33L116.10,68.09L116.00,67.84L115.96,67.60L115.97,67.38L116.02,67.22L116.13,67.06L116.27,66.99L116.44,66.99L116.59,67.03L116.82,67.16L117.00,67.33L117.17,67.55L117.30,67.79L117.39,68.04L117.44,68.28L117.43,68.50L117.37,68.68L117.27,68.81L117.13,68.88L116.96,68.89L116.77,68.83L116.62,68.74"/><path d="M116.75,67.12L116.61,67.08L116.47,67.08L116.35,67.14L116.27,67.25L116.22,67.40L116.22,67.58L116.25,67.78L116.33,67.99L116.44,68.19L116.57,68.36L116.73,68.50L116.89,68.60L117.04,68.65L117.18,68.64L117.30,68.59L117.39,68.48L117.44,68.32L117.43,68.26"/><path d="M118.96,54.13L118.64,54.58L118.28,55.02L117.91,55.43L117.52,55.77L117.02,56.10L116.52,56.29L116.07,56.33"/><path d="M117.94,91.15L118.18,91.37L118.48,91.46L118.84,91.43L119.22,91.26L119.60,90.99L119.95,90.61L120.26,90.17L120.49,89.68L120.64,89.19L120.69,88.72L120.64,88.31L120.49,87.98L120.26,87.77L119.95,87.67L119.60,87.71L119.22,87.87L118.84,88.15L118.66,88.34L118.48,88.52L118.18,88.97L117.94,89.45L117.80,89.94L117.75,90.42L117.80,90.83L117.94,91.15"/><path d="M120.04,87.70L120.10,87.76L120.25,88.08L120.30,88.49L120.24,88.99L120.10,89.45L119.87,89.94L119.56,90.39L119.21,90.76L118.83,91.04L118.45,91.20L118.09,91.23L118.01,91.21"/><path d="M118.50,89.95L118.40,89.89L118.33,89.78L118.28,89.65L118.29,89.41L118.38,89.16L118.54,88.94L118.74,88.78L118.88,88.72L119.02,88.70L119.15,88.73L119.25,88.79L119.33,88.90L119.37,89.03L119.36,89.27L119.27,89.52L119.11,89.74L118.91,89.90L118.77,89.96L118.63,89.98L118.50,89.95"/><path d="M142.83,74.29L142.49,74.43L142.11,74.71L141.75,75.09L141.45,75.53L141.21,76.02L141.07,76.51L141.02,76.98L141.07,77.39L141.18,77.63L141.21,77.72L141.45,77.93L141.75,78.03L142.11,77.99L142.49,77.83L142.76,77.63L142.87,77.55L143.22,77.18L143.53,76.73L143.76,76.25L143.91,75.75L143.96,75.28L143.91,74.87L143.88,74.79L144.15,74.92L146.59,75.73L148.82,75.73L150.69,74.92L152.09,73.35L152.93,71.12L153.15,68.38L152.73,65.30L151.71,62.08L150.14,58.94L149.55,57.98L148.69,55.75L147.88,54.29L146.92,53.02L145.07,51.40L144.33,50.89L144.03,50.66L143.66,50.30L143.21,49.69L142.23,47.13L140.55,45.09L138.08,43.34L134.96,41.97L131.37,41.08L127.51,40.69L125.16,40.79L123.61,40.85L119.88,41.53"/><path d="M121.46,104.28L121.61,104.60L121.84,104.82L122.15,104.92L122.50,104.88L122.89,104.72L123.27,104.44L123.63,104.06L123.93,103.62L124.17,103.13L124.31,102.63L124.36,102.16L124.31,101.75L124.17,101.42L123.93,101.20L123.63,101.11L123.27,101.15L122.89,101.31L122.50,101.59L122.15,101.96L121.84,102.41L121.61,102.90L121.46,103.40L121.44,103.56L121.41,103.87L121.46,104.28"/><path d="M121.43,103.73L121.45,103.95L121.58,104.23L121.78,104.41L122.04,104.49L122.34,104.46L122.66,104.33L122.98,104.09L123.29,103.77L123.54,103.39L123.74,102.98L123.87,102.56L123.91,102.16L123.87,101.81L123.74,101.54L123.54,101.35L123.29,101.27L122.98,101.30L122.77,101.39"/><path d="M150.69,74.92L159.03,70.11L160.43,68.54L161.26,66.31L161.48,63.57L161.06,60.49L160.49,58.70L160.04,57.27L158.48,54.12L156.47,51.25L154.16,48.84L152.66,47.67L141.04,39.49L139.72,38.89L138.18,38.50L136.53,38.32L126.97,38.01L126.48,37.96L126.02,37.84L125.62,37.66L125.16,37.39L124.50,36.94L123.87,36.34L123.30,35.64L122.81,34.85L121.86,33.82"/><path d="M124.19,100.36L124.01,100.15L123.91,99.86L123.87,99.50L123.89,99.41L123.92,99.10L124.04,98.69L124.23,98.27L125.90,95.24L126.15,94.85L126.44,94.52L126.76,94.25L127.08,94.07L127.40,93.99L127.68,94.01L127.92,94.13L128.10,94.34L128.21,94.63L128.24,94.98L128.19,95.38L128.07,95.80L127.88,96.21L126.21,99.25L125.96,99.64L125.67,99.97L125.35,100.24L125.03,100.41L124.71,100.50L124.43,100.48L124.19,100.36"/><path d="M126.75,94.26L126.94,94.15L127.23,94.08L127.49,94.09L127.70,94.20L127.87,94.39L127.96,94.66L127.99,94.98L127.95,95.34L127.84,95.72L127.67,96.10L126.00,99.14L125.77,99.49L125.51,99.79L125.22,100.03L124.92,100.19L124.64,100.27L124.38,100.25L124.16,100.14L124.00,99.95L123.90,99.69L123.88,99.44"/><path d="M123.89,99.39L123.99,99.32L124.28,99.08L124.55,98.78L124.77,98.43L126.44,95.39L126.61,95.01L126.72,94.63L126.76,94.25"/><path d="M126.10,80.35L126.07,80.17L126.08,79.95L126.13,79.77L126.24,79.64L126.38,79.57L126.55,79.56L126.74,79.62L126.93,79.74L127.11,79.91L127.28,80.12L127.41,80.36L127.50,80.61L127.55,80.86L127.54,81.08L127.48,81.26L127.38,81.39L127.24,81.46L127.07,81.47L126.88,81.41L126.69,81.29L126.50,81.12L126.34,80.90L126.21,80.67L126.10,80.35"/><path d="M127.54,80.84L127.55,80.90L127.50,81.05L127.41,81.16L127.29,81.22L127.15,81.23L127.00,81.18L126.84,81.08L126.68,80.94L126.55,80.76L126.44,80.56L126.36,80.36L126.33,80.16L126.33,79.98L126.38,79.83L126.46,79.72L126.58,79.66L126.72,79.65L126.86,79.70"/><path d="M127.68,57.75L127.78,58.04L127.92,58.29L128.09,58.51L128.28,58.68L128.48,58.80L128.67,58.86L128.84,58.86L128.99,58.78L129.09,58.65L129.15,58.46L129.16,58.24L129.11,57.99L129.02,57.73L128.88,57.49L128.71,57.27L128.53,57.09L128.33,56.97L128.13,56.91L127.96,56.92L127.81,56.99L127.71,57.13L127.65,57.31L127.65,57.54L127.68,57.75"/><path d="M127.92,54.04L127.78,53.80L127.69,53.54L127.65,53.29L127.65,53.07L127.71,52.88L127.81,52.75L127.96,52.67L128.13,52.67L128.33,52.73L128.53,52.85L128.71,53.03L128.88,53.24L129.02,53.49L129.11,53.74L129.16,53.99L129.15,54.22L129.09,54.40L128.99,54.54L128.84,54.61L128.67,54.62L128.48,54.56L128.28,54.44L128.09,54.26L127.92,54.04"/><path d="M133.48,91.82L133.48,91.83L133.53,91.43L133.67,90.98L133.90,90.54L134.18,90.14L134.51,89.81L134.87,89.56L135.21,89.43L135.53,89.42L135.80,89.52L137.42,90.59L137.47,90.63L137.67,90.84L137.80,91.15L137.83,91.54L137.77,91.97L137.62,92.43L137.40,92.87L137.11,93.27L136.78,93.60L136.43,93.84L136.09,93.98L135.77,93.99L135.50,93.89L133.83,92.78L133.62,92.56L133.50,92.25L133.47,91.87L133.48,91.83L133.50,92.08L133.61,92.37L133.79,92.56L135.46,93.67L135.71,93.76L136.00,93.75L136.32,93.63L136.63,93.41L136.93,93.11L137.19,92.74L137.40,92.34L137.53,91.93L137.59,91.53L137.56,91.18L137.44,90.90L137.26,90.71L135.59,89.60L135.34,89.50L135.05,89.52L134.78,89.62"/><path d="M134.54,93.05L134.77,93.04L135.09,92.92L135.41,92.70L135.71,92.40L135.97,92.04L136.17,91.63L136.31,91.22L136.36,90.83L136.33,90.48L136.22,90.19L136.03,90.00L135.29,89.51"/><path d="M137.48,95.28L137.39,95.08L137.34,94.67L137.39,94.20L137.54,93.70L137.77,93.21L138.08,92.77L138.44,92.39L138.82,92.11L139.20,91.95L139.56,91.91L139.86,92.01L140.10,92.22L140.24,92.55L140.29,92.96L140.24,93.43L140.10,93.93L139.86,94.42L139.56,94.87L139.20,95.24L138.82,95.52L138.44,95.68L138.08,95.72L137.77,95.62L137.54,95.41L137.48,95.28"/><path d="M137.36,94.53L137.38,94.76L137.51,95.03L137.71,95.22L137.97,95.30L138.27,95.27L138.59,95.13L138.91,94.89L139.22,94.57L139.47,94.19L139.67,93.78L139.80,93.36L139.84,92.96L139.80,92.61L139.67,92.34L139.47,92.15L139.22,92.07L138.91,92.10L138.70,92.19"/><path d="M138.43,63.10L138.19,62.45L137.86,60.64L137.91,59.00L138.33,57.65L139.09,56.68L140.14,56.15L141.41,56.10L142.81,56.53L144.25,57.42L145.63,58.70L146.85,60.28L147.83,62.06L148.51,63.92L148.84,65.72L148.79,67.36L148.38,68.71L147.62,69.68L146.57,70.21L145.30,70.26L143.89,69.83L142.46,68.95L141.08,67.67L139.85,66.08L138.87,64.30L138.43,63.10"/><path d="M139.29,75.33L139.56,75.06L139.86,74.61L140.10,74.12L140.24,73.62L140.29,73.15L140.28,73.05"/><path d="M139.80,72.82L139.84,73.15L139.80,73.55L139.67,73.97L139.47,74.38L139.22,74.76"/><path d="M143.87,74.79L143.88,74.79L138.94,72.40L138.72,72.33"/><path d="M138.73,72.37L138.79,72.35"/><path d="M138.73,72.36L138.76,72.34"/><path d="M143.50,74.61L143.51,74.65L143.57,75.06L143.51,75.53L143.37,76.02L143.13,76.51L142.83,76.95L142.48,77.33L142.09,77.60L141.71,77.77L141.36,77.80L141.28,77.78"/><path d="M141.59,76.04L141.55,76.22L141.55,76.38L141.58,76.51L141.65,76.59L141.75,76.63L141.87,76.62L142.01,76.56L142.15,76.46L142.29,76.32L142.42,76.15L142.52,75.96L142.60,75.77L142.64,75.51L142.63,75.36L142.58,75.25L142.49,75.19L142.44,75.18L142.32,75.19L142.18,75.25L142.04,75.35L141.90,75.49L141.77,75.66L141.67,75.85L141.59,76.04"/><path d="M141.44,39.76L153.76,48.30L155.07,49.33L157.10,51.44L158.85,53.95L160.22,56.70L161.12,59.51L161.48,62.21L161.48,63.57"/></g></g><g id="Actor_2.0"><g style="stroke:#000000;stroke-width:0.088"><path d="M59.37,103.24L58.99,104.01L58.77,104.93L58.71,105.98L58.82,107.12L59.08,108.31L59.49,109.52L60.05,110.71L60.73,111.85L61.51,112.90L62.37,113.83L63.28,114.62L64.22,115.23L65.15,115.64L66.05,115.86L66.89,115.86L67.64,115.66L68.29,115.25L68.81,114.65L69.19,113.87L69.21,113.76L69.41,112.95L69.47,111.90L69.37,110.77L69.10,109.58L68.69,108.36L68.13,107.17L67.45,106.03L66.67,104.98L65.81,104.05L64.90,103.27L64.79,103.20L63.97,102.66L63.03,102.24L62.13,102.02L61.29,102.02L60.54,102.22L59.89,102.63L59.37,103.24L59.62,102.88L60.15,102.27L60.82,101.85L68.90,97.18L69.68,96.97L70.54,96.97"/><path d="M59.56,108.88L60.05,110.08L60.67,111.23L61.41,112.31L62.24,113.28L62.60,113.61L63.13,114.09L64.05,114.73L64.98,115.18L65.87,115.41L66.71,115.42L67.46,115.21L68.09,114.79L68.58,114.17L68.92,113.37L69.06,112.66L69.10,112.41L69.11,111.35L68.94,110.20L68.62,109.00L68.56,108.88L68.13,107.81L67.51,106.65L66.77,105.57L65.95,104.61L65.05,103.79L64.13,103.15L63.20,102.71L62.31,102.47L61.47,102.46L60.73,102.67L60.10,103.10L59.60,103.72L59.42,104.14L59.26,104.52L59.08,105.47L59.07,106.54L59.24,107.69L59.56,108.88"/><path d="M61.18,102.63L61.75,102.47"/><path d="M68.62,114.08L68.35,114.42L67.73,114.83L67.01,115.04L66.19,115.02"/><path d="M66.89,115.86L67.33,115.82L68.10,115.61L76.19,110.94L76.85,110.52L77.38,109.91L77.64,109.55L78.01,108.78L78.23,107.86L78.29,106.81L78.19,105.67L77.93,104.48L77.81,104.14L77.51,103.27L76.95,102.08L76.28,100.94L75.50,99.89L74.64,98.96L74.06,98.46L73.73,98.17L72.79,97.56L71.86,97.15L70.96,96.93L70.12,96.93L69.68,96.97"/><path d="M69.60,109.38L69.17,108.14L68.60,106.91"/><path d="M77.68,104.71L77.26,103.47L76.69,102.25"/></g></g><g id="Actor_1.0"><g style="stroke:#000000;stroke-width:0.088"><path d="M98.49,26.53L98.41,26.56L98.27,26.62L97.52,26.88L96.98,27.04L96.38,27.06L95.96,27.05L95.48,27.02L94.91,26.95L94.59,25.84L94.72,25.47L94.90,25.06L95.06,24.79L95.33,24.67"/><path d="M96.98,27.04L96.67,25.93L96.02,25.85L95.76,25.84L95.21,25.82L94.92,25.82L94.59,25.84"/><path d="M94.35,22.58L94.46,22.70L94.65,22.78L94.93,22.83L95.27,22.84L95.66,22.81L96.08,22.74L96.51,22.63L96.93,22.49L97.32,22.33L97.67,22.16L97.95,21.97L98.16,21.79L98.28,21.61L98.31,21.45L98.79,23.15L98.76,23.31L98.64,23.49L98.43,23.67L98.15,23.86L97.80,24.03L97.41,24.19L96.99,24.33L96.56,24.44L96.14,24.51L95.75,24.54L95.57,24.54L95.41,24.53L95.13,24.48L94.94,24.40L94.83,24.28L94.35,22.58L94.33,22.43L94.35,22.35L94.40,22.27L94.63,21.90L94.59,21.98L94.57,22.04L94.59,22.17L94.68,22.26L94.84,22.33L95.07,22.37L95.35,22.38L95.68,22.35L96.03,22.29L96.39,22.21L96.74,22.09L97.06,21.96L97.35,21.81L97.59,21.66L97.76,21.50L97.86,21.36L97.88,21.23L97.83,21.12L97.70,21.03L97.50,20.98L97.24,20.95L96.94,20.96L96.60,21.01L96.25,21.08L95.89,21.18L95.55,21.31L95.24,21.45L94.98,21.60L94.81,21.72L94.77,21.75L94.63,21.90"/><path d="M95.22,26.99L95.27,27.16L95.32,27.30L95.46,27.42L95.69,27.50L95.99,27.55L96.35,27.56L96.76,27.53L97.20,27.46L97.66,27.36L98.12,27.23L98.55,27.07L98.95,26.89L99.30,26.69L99.56,26.52L99.59,26.50L99.79,26.30L99.92,26.11L99.95,25.94L99.83,25.48"/><path d="M95.29,24.51L95.52,25.33L95.63,25.43L95.82,25.49L96.08,25.53L96.39,25.52L96.75,25.48L97.12,25.40L97.50,25.29L97.85,25.15L98.17,25.00L98.42,24.84L98.61,24.68L98.72,24.53L98.74,24.39L98.52,23.60"/><path d="M98.43,23.67L98.19,23.87L97.96,24.02L97.67,24.17L97.66,24.17L97.35,24.30L97.01,24.41L96.66,24.50L96.32,24.55L96.00,24.58L95.72,24.57L95.41,24.53"/><path d="M94.91,21.92L95.01,21.77L95.20,21.62L95.46,21.47L95.77,21.34L96.11,21.23L96.46,21.15L96.79,21.10L97.09,21.09L97.32,21.12L97.48,21.19L97.56,21.29L97.55,21.42L97.44,21.56L97.25,21.71L97.14,21.78L96.99,21.86L96.68,21.99L96.34,22.11L95.99,22.19L95.66,22.23L95.37,22.24L95.13,22.21L94.97,22.14L94.89,22.04L94.91,21.92"/><path d="M96.21,27.81L96.28,27.92L96.43,28.01L96.66,28.06L96.76,28.06L96.95,28.07L97.28,28.04L97.65,27.98L98.03,27.89L98.40,27.76L98.74,27.62L99.03,27.46L99.25,27.30L99.40,27.14L99.45,27.06L99.47,26.99L99.45,26.87L99.86,28.34L99.89,28.47L99.82,28.62L99.67,28.78L99.44,28.94L99.15,29.10L98.82,29.24L98.49,29.35L98.45,29.36L98.07,29.46L97.98,29.48L97.70,29.52L97.36,29.55L97.07,29.53L96.85,29.48L96.70,29.40L96.63,29.28L96.21,27.81L96.24,27.67L96.30,27.59"/><path d="M96.02,27.55L96.04,27.56L96.34,27.59L96.69,27.59L97.09,27.54L97.51,27.46L97.94,27.35L98.36,27.21L98.74,27.05L99.08,26.87L99.36,26.68L99.48,26.57"/><path d="M96.43,27.59L96.43,27.60L96.49,27.70L96.61,27.77L96.80,27.81L97.05,27.82L97.33,27.80L97.56,27.76L97.64,27.75L97.96,27.67L98.27,27.56L98.52,27.46L98.56,27.44L98.80,27.31L98.99,27.17L99.12,27.04L99.15,26.97L99.17,26.91L99.16,26.82"/><path d="M96.43,27.60L96.43,27.60"/><path d="M96.67,25.93L97.43,25.59L97.66,25.50L98.42,25.21L99.21,24.97L99.52,26.08L99.65,25.87L99.78,25.61L99.89,25.32L99.99,25.02L99.68,23.92L99.52,24.19L99.34,24.60L99.28,24.76L99.21,24.97"/><path d="M96.35,25.82L96.70,25.76L97.07,25.68"/><path d="M99.82,28.62L99.65,28.88L99.53,29.01L99.33,29.15L99.09,29.29L98.80,29.41L98.49,29.51L98.16,29.59L97.85,29.65L97.56,29.67L97.32,29.66L97.12,29.62L96.85,29.48"/><path d="M98.27,26.62L97.97,26.72L97.75,26.80"/><path d="M98.27,26.62L98.86,26.38L99.52,26.08"/><path d="M98.58,23.82L99.03,23.84L99.68,23.92"/><path d="M97.70,21.03L98.09,21.22L98.24,21.32L98.31,21.45"/><path d="M99.45,26.87L99.34,26.77L99.27,26.74"/><path d="M99.15,26.82L99.16,26.85"/><path d="M99.48,24.94L99.47,24.98L99.48,25.03L99.56,25.30L99.57,25.34L99.58,25.35L99.59,25.35L99.59,25.35L99.60,25.35L99.60,25.34L99.60,25.32L99.60,25.28L99.59,25.23L99.51,24.96L99.50,24.94L99.50,24.93L99.49,24.93L99.48,24.93L99.48,24.93L99.48,24.94"/><path d="M99.66,25.41L99.66,25.38L99.66,25.34L99.65,25.31L99.64,25.28L99.51,24.83L99.50,24.80L99.49,24.77L99.48,24.75L99.47,24.74L99.46,24.74L99.45,24.74L99.45,24.76L99.43,24.87L99.42,24.90L99.42,24.93L99.43,24.97L99.44,25.01L99.44,25.04L99.55,25.42L99.56,25.45L99.57,25.48L99.58,25.50L99.59,25.51L99.60,25.51L99.65,25.47L99.66,25.46L99.66,25.44L99.66,25.41L99.69,25.32"/><path d="M99.40,24.79L99.41,24.69L99.47,24.52L99.54,24.41L99.62,24.37L99.82,25.08L99.79,25.30L99.74,25.47L99.67,25.58L99.58,25.62L99.38,24.92L99.40,24.79"/><path d="M99.45,24.58L99.52,24.57L99.56,24.70L99.63,24.63L99.66,24.75L99.62,24.85L99.52,24.87"/><path d="M99.56,24.70L99.46,24.72L99.43,24.63"/><path d="M99.66,24.75L99.56,24.77L99.55,24.70"/><path d="M99.56,24.77L99.52,24.86"/><path d="M99.46,24.74L99.41,24.75"/><path d="M99.55,25.52L99.60,25.51"/><path d="M99.53,24.42L99.55,24.49"/><path d="M99.52,24.57L99.57,24.51L99.63,24.48L99.53,24.49L99.47,24.53L99.46,24.53"/><path d="M99.57,25.59L99.64,25.49L99.64,25.48"/><path d="M99.82,25.08L99.78,25.08"/><path d="M99.63,24.99L99.64,25.02L99.74,25.00L99.69,25.18L99.73,25.31L99.76,25.19L99.79,25.05L99.63,24.48"/><path d="M99.74,25.00L99.70,24.88L99.66,24.98L99.56,25.00"/><path d="M99.69,25.18L99.62,25.20"/><path d="M99.73,25.31L99.65,25.33"/><path d="M99.64,25.02L99.61,25.15"/><path d="M99.66,24.98L99.62,24.85"/></g></g><g id="Actor_3.0"><g style="stroke:#000000;stroke-width:0.088"><path d="M115.99,133.12L115.81,133.51L115.54,134.13L115.48,134.78L115.48,145.25L115.62,145.89L115.80,146.29L116.13,146.89L116.65,147.44L117.33,147.92L118.16,148.33L119.10,148.64L120.12,148.85L121.19,148.94L122.28,148.92L123.33,148.79L124.33,148.54L125.23,148.19L126.01,147.76L126.64,147.25L127.09,146.68L127.26,146.29L127.54,145.66L127.60,145.02L127.60,134.54L127.46,133.90L127.28,133.50L127.41,134.12L127.35,134.75L127.09,135.36L127.06,135.38L126.64,135.93L126.01,136.44L125.23,136.87L124.33,137.22L124.21,137.25L123.33,137.47L122.28,137.60L121.19,137.62L120.12,137.53L119.10,137.32L118.16,137.01L117.33,136.60L116.65,136.12L116.13,135.57L116.03,135.38L115.80,134.97L115.67,134.35L115.73,133.72L115.99,133.12L116.44,132.55L117.07,132.04L117.84,131.60L118.75,131.25L119.74,131.01L120.80,130.87L121.89,130.85L122.96,130.94L123.98,131.15L124.92,131.46L125.75,131.87L126.43,132.36L126.95,132.91L127.28,133.50"/><path d="M116.62,135.49L116.53,135.39L116.24,134.80L116.15,134.20L116.27,133.59L116.59,133.01L117.10,132.47L117.78,132.01L118.60,131.63L118.70,131.60L119.54,131.35L120.56,131.18L121.61,131.13L122.66,131.19L123.67,131.38L124.59,131.67L125.40,132.07L126.06,132.54L126.54,133.08L126.84,133.67L126.93,134.28L126.81,134.88L126.49,135.46L125.98,136.00L125.49,136.33L125.30,136.46L124.47,136.85L123.54,137.13L122.52,137.30L121.47,137.35L120.42,137.28L119.41,137.10L118.49,136.80L117.68,136.41L117.02,135.93L116.62,135.49"/><path d="M116.34,134.62L116.42,135.16"/><path d="M118.71,132.14L117.91,132.51L117.25,132.96"/><path d="M125.90,133.03L125.26,132.57L124.48,132.19"/><path d="M126.74,134.70L126.64,135.18"/></g></g><g id="Actor_3.1"><g style="stroke:#000000;stroke-width:0.088"><path d="M115.61,124.02L115.62,124.05L115.80,124.45L116.13,125.05L116.65,125.60L117.33,126.08L118.16,126.49L119.10,126.80L120.12,127.01L121.19,127.10L122.28,127.08L123.33,126.95L124.33,126.70L125.23,126.35L126.01,125.92L126.64,125.41L127.09,124.84L127.26,124.45L127.54,123.82L127.60,123.18L127.60,112.70L127.46,112.06L127.28,111.66L127.41,112.28L127.35,112.91L127.09,113.52L126.64,114.09L126.01,114.60L125.23,115.03L124.33,115.38L124.21,115.41L123.33,115.63L122.28,115.76L121.19,115.78L120.12,115.69L119.10,115.48L118.16,115.17L117.33,114.76L116.65,114.28L116.13,113.73L115.80,113.13L115.67,112.51L115.73,111.88L115.99,111.28L115.81,111.66L115.54,112.29L115.48,112.94L115.48,123.41L115.61,124.02"/><path d="M116.59,113.61L116.53,113.55L116.24,112.96L116.15,112.36L116.27,111.75L116.59,111.17L117.10,110.63L117.78,110.17L118.60,109.79L119.54,109.51L120.56,109.34L121.61,109.29L122.66,109.35L123.67,109.54L124.59,109.83L125.40,110.23L126.06,110.70L126.54,111.24L126.84,111.83L126.93,112.44L126.81,113.04L126.52,113.57L126.49,113.62L125.98,114.16L125.30,114.62L124.47,115.00L123.54,115.29L122.52,115.45L121.47,115.51L121.36,115.50L120.42,115.44L119.41,115.25L118.49,114.96L117.68,114.57L117.02,114.09L116.59,113.61"/><path d="M116.34,112.78L116.42,113.32"/><path d="M115.99,111.28L116.44,110.71L117.07,110.19L117.84,109.76L118.75,109.41L119.74,109.17L120.80,109.03L121.89,109.01L122.96,109.10L123.98,109.31L124.92,109.62L125.75,110.03L126.43,110.52L126.95,111.07L127.28,111.66"/><path d="M117.25,111.12L117.91,110.67L118.71,110.30"/><path d="M125.90,111.19L125.26,110.73L124.48,110.35"/><path d="M126.64,113.34L126.74,112.86"/></g></g><g id="Actor_4.0"><g style="stroke:#000000;stroke-width:0.088"><path d="M81.39,94.67L81.36,94.57L81.06,93.48L80.87,92.41L80.76,91.37L80.76,90.38L80.86,89.45L81.06,88.60L81.35,87.84L81.74,87.17L82.20,86.61L82.76,86.16L83.16,85.93L83.78,85.61L84.48,85.41L85.21,85.34L86.01,85.40L86.83,85.59L87.68,85.90L88.53,86.34L89.39,86.88L90.23,87.54L91.04,88.29L91.83,89.14L92.57,90.05L93.26,91.03L93.88,92.07L94.43,93.14L94.90,94.23L95.28,95.33L95.58,96.43L95.77,97.50L95.88,98.54L95.88,99.52L95.78,100.45L95.58,101.31L95.29,102.07L94.90,102.74L94.43,103.30L93.88,103.75L93.48,103.97L92.86,104.29L92.16,104.50L91.41,104.56L90.63,104.50L89.80,104.31L88.96,104.00L88.11,103.57L87.25,103.02L86.41,102.37L85.59,101.62L84.81,100.77L84.07,99.85L83.38,98.87L82.76,97.84L82.21,96.77L81.74,95.68L81.39,94.67"/><path d="M91.16,102.26L90.68,102.46L90.07,102.56L89.39,102.54L88.68,102.39L87.96,102.12L87.23,101.73L86.50,101.23L85.79,100.63L85.10,99.93L84.46,99.16L83.87,98.32L83.34,97.43L82.88,96.51L82.51,95.57L82.22,94.63L82.02,93.70L81.92,92.80L81.91,91.96L82.01,91.17L82.20,90.45L82.49,89.82L82.86,89.31L83.20,88.99L83.20,89.00"/><path d="M84.04,89.31L83.55,89.62L83.13,90.04"/><path d="M82.82,89.35L82.79,89.38L82.76,89.44"/><path d="M83.44,88.82L83.45,88.81L83.32,88.89L83.20,88.99L83.43,88.78L84.21,88.42L85.11,88.32L86.09,88.47L87.12,88.87L88.17,89.51L89.20,90.37L90.16,91.40L90.47,91.83L91.02,92.59L91.76,93.87L92.34,95.22L92.75,96.57L92.97,97.88L92.98,99.10L92.80,100.19L92.43,101.10L91.88,101.82L91.17,102.30L90.88,102.38"/><path d="M88.92,100.90L88.21,100.49L87.50,99.97L86.82,99.35L86.17,98.65L85.57,97.86L85.02,97.02L84.54,96.14L84.14,95.23L83.83,94.31L83.61,93.40L83.48,92.52L83.46,91.69L83.53,90.92L83.70,90.22L83.94,89.68"/><path d="M83.77,89.86L84.28,89.29"/><path d="M84.12,89.35L83.63,89.65L83.49,89.80"/><path d="M85.26,89.12L84.66,89.17L84.11,89.35"/><path d="M83.45,88.81L83.84,88.60L84.22,88.45L85.12,88.35L86.10,88.50L87.13,88.90L87.35,89.04L88.17,89.54L89.19,90.39L90.14,91.42L91.01,92.60L91.74,93.88L92.32,95.22L92.73,96.56L92.94,97.87L92.96,99.08L92.78,100.17L92.41,101.08L91.86,101.79L91.25,102.22L91.14,102.27"/><path d="M83.44,88.78L83.69,88.63L84.47,88.27L85.36,88.17L85.96,88.20"/><path d="M84.59,97.01L84.94,97.62L85.35,98.18"/><path d="M85.26,89.12L85.91,89.20L86.59,89.41L87.29,89.74L87.99,90.19L88.68,90.75L89.35,91.40L89.97,92.14L90.54,92.95L91.05,93.81L91.49,94.70L91.84,95.61L92.09,96.51L92.26,97.40L92.32,98.25L92.28,99.04L92.14,99.76"/><path d="M88.91,100.90L89.61,101.19L90.29,101.35L90.28,101.35L90.72,101.38"/><path d="M89.98,92.13L90.55,92.94L91.06,93.80"/><path d="M90.26,102.53L90.33,102.53L90.46,102.50"/><path d="M91.60,100.97L91.18,101.39L90.69,101.70"/><path d="M90.38,101.44L91.19,101.29L91.22,101.28"/><path d="M91.19,101.31L90.71,101.61"/><path d="M91.02,101.41L91.03,101.41"/><path d="M91.17,102.30L91.43,102.15L92.14,101.67L92.69,100.96L92.79,100.77L92.79,100.78"/><path d="M91.18,101.32L91.59,100.89"/><path d="M91.59,100.91L91.91,100.37L92.15,99.74"/><path d="M93.46,92.31L92.84,91.27L92.15,90.29"/><path d="M93.38,92.35L92.76,91.33L92.07,90.35"/></g></g><g id="Actor_1.1"><g style="stroke:#000000;stroke-width:0.088"><path d="M110.35,18.93L110.51,18.87L110.78,18.75L110.93,18.67L110.78,18.75L110.10,19.04L109.62,19.23L108.92,19.32L108.44,19.36L107.88,19.38L107.23,19.38L106.92,18.27L106.88,17.93L106.84,17.57L106.83,17.34L107.42,17.01"/><path d="M109.62,19.23L109.30,18.12L108.56,18.11L107.63,18.17L107.30,18.21L106.92,18.27"/><path d="M107.14,16.77L107.01,16.71L106.90,16.59L106.42,14.89L106.53,15.01L106.72,15.09L106.99,15.14L107.33,15.15L107.72,15.12L108.14,15.05L108.57,14.95L108.99,14.81L109.38,14.65L109.73,14.48L110.02,14.29L110.23,14.11L110.36,13.93L110.39,13.77L110.87,15.47L110.84,15.63L110.71,15.81L110.50,15.99L110.22,16.18L109.87,16.35L109.47,16.51L109.05,16.65L108.62,16.75L108.20,16.82L107.81,16.85L107.48,16.84L107.20,16.79L107.14,16.77"/><path d="M106.42,14.89L106.40,14.82L106.41,14.74L106.49,14.57L106.72,14.21L106.65,14.35L106.65,14.41L106.67,14.47L106.75,14.57L106.91,14.64L107.14,14.69L107.42,14.69L107.74,14.67L108.09,14.61L108.45,14.52L108.80,14.41L109.13,14.28L109.42,14.13L109.66,13.98L109.83,13.82L109.94,13.68L109.96,13.55L109.91,13.43L109.79,13.35L109.59,13.29L109.34,13.27L109.04,13.27L108.70,13.32L108.34,13.39L107.99,13.49L107.64,13.61L107.33,13.75L107.07,13.90L106.86,14.06L106.72,14.21"/><path d="M106.97,14.33L107.02,14.44L107.17,14.51L107.39,14.55L107.67,14.55L108.00,14.51L108.35,14.44L108.69,14.33L109.01,14.20L109.28,14.06L109.49,13.91L109.61,13.76L109.65,13.63L109.59,13.52L109.45,13.45L109.22,13.41L108.94,13.41L108.61,13.45L108.26,13.52L107.92,13.63L107.60,13.76L107.33,13.90L107.13,14.05L107.00,14.20L106.97,14.33"/><path d="M111.89,17.73L112.03,18.25L112.00,18.42L111.88,18.60L111.68,18.80L111.40,19.00L111.22,19.10L111.05,19.19L110.66,19.37L110.22,19.53L109.76,19.67L109.31,19.77L108.86,19.84L108.45,19.87L108.09,19.87L107.78,19.82L107.55,19.74L107.41,19.62L107.35,19.48L107.32,19.38"/><path d="M107.37,16.82L107.60,17.63L107.69,17.73L107.87,17.80L108.13,17.84L108.44,17.83L108.79,17.80L109.04,17.75L109.16,17.72L109.53,17.61L109.89,17.48L110.21,17.33L110.48,17.17L110.68,17.01L110.79,16.85L110.83,16.72L110.60,15.91"/><path d="M107.48,16.84L107.79,16.89L108.07,16.89L108.38,16.87L108.72,16.81L109.07,16.73L109.42,16.62L109.74,16.49L110.02,16.34L110.26,16.19L110.50,15.99"/><path d="M108.91,21.79L109.19,21.92L109.37,21.97L109.61,21.98L109.90,21.96L109.99,21.95L110.21,21.92L110.53,21.84L110.84,21.74L111.14,21.61L111.39,21.48L111.59,21.34L111.72,21.21L111.89,20.95L111.73,21.11L111.50,21.27L111.20,21.43L110.86,21.57L110.49,21.69L110.39,21.71L110.11,21.78L109.74,21.84L109.41,21.86L109.13,21.84L108.91,21.79L108.77,21.70L108.71,21.58L108.29,20.11L108.33,19.97L108.38,19.90"/><path d="M111.56,18.88L111.43,19.00L111.16,19.18L110.82,19.36L110.43,19.52L110.01,19.66L109.59,19.78L109.16,19.86L108.77,19.90L108.41,19.90L108.11,19.87L108.10,19.87"/><path d="M108.51,19.90L108.56,20.00L108.68,20.07L108.86,20.12L109.10,20.13L109.38,20.12L109.69,20.07L109.93,20.01L110.01,19.99L110.32,19.89L110.61,19.77L110.86,19.64L111.05,19.50L111.19,19.36L111.25,19.24L111.26,19.18L111.24,19.13L111.26,19.18"/><path d="M108.29,20.11L108.35,20.22L108.49,20.31L108.71,20.37L108.99,20.38L109.32,20.36L109.69,20.30L110.07,20.21L110.44,20.09L110.78,19.95L111.08,19.79L111.31,19.63L111.47,19.47L111.55,19.32L111.55,19.25L111.53,19.19L111.43,19.09L111.35,19.06"/><path d="M108.91,18.05L109.28,17.96L109.64,17.86"/><path d="M109.30,18.12L109.99,17.74L110.89,17.32L111.60,17.04L111.92,18.15L111.31,18.48L110.93,18.67L110.97,18.66"/><path d="M109.79,13.35L110.18,13.53L110.33,13.64L110.39,13.77"/><path d="M111.92,18.15L111.91,17.97L111.89,17.75L111.86,17.48L111.83,17.22L111.52,16.11L110.77,16.11L110.66,16.12"/><path d="M111.95,20.67L111.53,19.19"/><path d="M111.24,19.13L111.24,19.13"/><path d="M111.60,17.04L111.56,16.71L111.53,16.35L111.52,16.11"/><path d="M111.67,17.08L111.67,17.05L111.67,17.05L111.68,17.08L111.76,17.35L111.78,17.42L111.79,17.46L111.79,17.47L111.78,17.46L111.77,17.41L111.69,17.14L111.67,17.08"/><path d="M111.82,17.62L111.81,17.59L111.79,17.53L111.66,17.08L111.64,16.99L111.63,16.88L111.63,16.86L111.63,16.88L111.66,16.96L111.80,17.47L111.82,17.54L111.83,17.58L111.83,17.59L111.82,17.62L111.82,17.62"/><path d="M111.81,17.61L111.84,17.73L111.85,17.70L111.85,17.60L111.83,17.45L111.79,17.24L111.59,16.54L111.58,16.57L111.58,16.66L111.60,16.81L111.64,17.02L111.81,17.61"/><path d="M111.79,17.24L111.79,17.25"/><path d="M111.72,17.17L111.76,17.16L111.78,17.32L111.82,17.46L111.80,17.35L111.78,17.21L111.62,16.64L111.61,16.66L111.61,16.71L111.59,16.71"/><path d="M111.76,17.16L111.72,17.04L111.73,17.13L111.69,16.99L111.67,17.00"/><path d="M111.82,17.46L111.80,17.46"/><path d="M111.78,17.32L111.76,17.33"/><path d="M111.73,17.13L111.71,17.13"/><path d="M111.82,17.62L111.81,17.62"/><path d="M111.61,16.71L111.64,16.84L111.65,16.79L111.68,16.91L111.69,16.99"/><path d="M111.65,16.92L111.68,16.91"/><path d="M111.72,17.04L111.72,17.04"/><path d="M111.62,16.64L111.58,16.65"/><path d="M111.63,16.86L111.61,16.87"/><path d="M111.64,16.84L111.61,16.85"/><path d="M111.89,20.95L111.96,20.80L111.95,20.67"/></g></g><g id="Actor_4.1"><g style="stroke:#000000;stroke-width:0.088"><path d="M162.04,48.28L162.23,48.86L162.68,49.95L163.21,51.02L163.81,52.06L164.47,53.06L165.20,53.99L165.97,54.85L166.77,55.62L167.60,56.30L168.45,56.88L169.30,57.34L170.14,57.68L170.67,57.82L170.96,57.90L171.75,57.99L172.50,57.96L173.19,57.80L173.83,57.51L174.39,57.11L174.88,56.58L175.28,55.95L175.59,55.22L175.81,54.40L175.94,53.50L175.96,52.54L175.89,51.52L175.72,50.46L175.45,49.37L175.09,48.28L174.64,47.18L174.12,46.11L173.52,45.07L172.85,44.08L172.56,43.71L172.13,43.15L171.36,42.29L170.55,41.51L169.72,40.83L168.87,40.26L168.03,39.80L167.18,39.46L166.36,39.24L165.58,39.14L164.83,39.18L164.13,39.34L163.50,39.62L162.93,40.03L162.45,40.55L162.04,41.18L161.73,41.91L161.51,42.73L161.39,43.63L161.36,44.60L161.44,45.62L161.61,46.68L161.87,47.76L162.04,48.28"/><path d="M161.86,47.76L162.22,48.86L162.67,49.95L163.19,51.03L163.80,52.07L164.47,53.07L165.19,54.00L165.93,54.82L165.97,54.87L166.78,55.65L167.61,56.33L168.46,56.91L169.32,57.37L170.16,57.71L171.00,57.94L171.79,58.03L172.56,58.00L173.27,57.83L173.91,57.54L174.30,57.32L174.88,56.90L175.37,56.37L175.79,55.73L176.10,54.99L176.32,54.16L176.45,53.25L176.47,52.28L176.40,51.26L176.23,50.19L175.96,49.10L175.60,48.00L175.15,46.90L174.62,45.82L174.46,45.55L174.02,44.78L173.35,43.78L172.62,42.85L171.85,41.98L171.04,41.20L170.20,40.52L169.35,39.95L168.50,39.48L167.65,39.14L166.82,38.91L166.02,38.82L165.26,38.85L164.56,39.02L163.90,39.31L163.51,39.53L162.93,39.95L162.44,40.48L162.03,41.12L161.71,41.86L161.49,42.70L161.37,43.60L161.34,44.57L161.42,45.60L161.59,46.66L161.86,47.76"/><path d="M163.98,48.28L164.26,49.08L164.67,49.99L165.16,50.88L165.72,51.72L166.33,52.50L166.99,53.20L167.68,53.82L168.39,54.33L169.11,54.73L169.82,55.01L170.50,55.16L171.15,55.18L171.75,55.08L172.29,54.85L172.76,54.50L173.15,54.03L173.45,53.46L173.66,52.79L173.77,52.03L173.78,51.78L173.78,51.22L173.70,50.34L173.51,49.44L173.23,48.52L172.86,47.60L172.41,46.69L171.89,45.83L171.30,45.02L170.67,44.27L169.99,43.61L169.29,43.05L168.57,42.59L167.86,42.25L167.16,42.04L166.49,41.95L166.40,41.95L165.87,41.99L165.30,42.15L164.79,42.45L164.36,42.86L164.01,43.38L163.76,44.00L163.59,44.72L163.53,45.50L163.57,46.35L163.71,47.24L163.94,48.16L163.98,48.28"/><path d="M164.92,45.75L165.06,46.63L165.29,47.53"/><path d="M165.31,47.51L165.08,46.60L164.94,45.73L164.91,44.90L164.98,44.13"/><path d="M164.97,44.14L165.14,43.44L165.40,42.84"/><path d="M167.69,51.77L167.08,51.01L166.53,50.19L166.04,49.31L165.63,48.41L165.31,47.50"/><path d="M165.39,42.85L165.75,42.35L166.01,42.11"/><path d="M165.42,42.41L166.13,42.05L166.57,41.99"/><path d="M166.45,41.99L166.54,41.99"/><path d="M167.88,42.29L167.20,42.08L166.53,41.99"/><path d="M167.80,51.88L167.82,51.91L167.69,51.77"/><path d="M172.91,54.11L172.39,54.23L171.78,54.25L171.12,54.13L170.43,53.89L169.73,53.52L169.03,53.04L168.34,52.45L167.98,52.07L168.32,52.42"/><path d="M167.82,51.91L168.34,52.45"/><path d="M167.98,52.07L167.91,52.00"/><path d="M167.88,42.29L168.59,42.62L169.30,43.08L169.99,43.64L170.67,44.29L171.30,45.03L171.88,45.84L171.91,45.89L172.40,46.70L172.85,47.60L173.22,48.51L173.49,49.43L173.68,50.33L173.76,51.16L173.76,51.19L173.75,52.01"/><path d="M169.66,54.24L170.40,54.53L170.64,54.56"/><path d="M171.32,54.18L171.09,54.13L170.40,53.89"/><path d="M172.39,54.23L172.40,54.23"/><path d="M173.20,53.86L173.09,54.02L173.10,54.00"/><path d="M173.25,53.75L172.83,54.19"/><path d="M173.75,52.00L173.64,52.74L173.43,53.40L173.14,53.96L173.14,53.96"/><path d="M175.99,51.51L175.81,50.44L175.54,49.35"/></g></g><g id="Actor_2.1"><g style="stroke:#000000;stroke-width:0.088"><path d="M178.20,36.92L178.20,36.89L178.27,35.85L178.51,34.94L178.90,34.18L179.43,33.60L180.09,33.21L180.86,33.03L181.70,33.05L182.61,33.29L183.54,33.72L184.48,34.35L185.38,35.15L186.24,36.09L187.01,37.15L187.68,38.30L188.22,39.50L188.62,40.71L188.82,41.66L188.87,41.89L188.96,43.02L188.88,44.06L188.64,44.97L188.25,45.73L187.72,46.31L187.06,46.70L186.30,46.89L185.45,46.86L184.89,46.72L184.54,46.63L183.61,46.19L182.68,45.56L181.77,44.76L180.92,43.82L180.14,42.76L179.48,41.61L178.93,40.42L178.53,39.21L178.28,38.02L178.20,36.92"/><path d="M179.18,40.25L178.80,39.06L178.59,37.89L178.55,36.79L178.67,35.80L178.97,34.95L179.42,34.28L180.01,33.79L180.73,33.52L181.54,33.46L182.42,33.63L183.34,34.01L184.27,34.59L185.17,35.36L185.84,36.08L186.02,36.28L186.79,37.33L187.45,38.47L187.97,39.66L188.01,39.76L188.35,40.86L188.56,42.02L188.61,43.12L188.48,44.11L188.19,44.96L187.73,45.64L187.60,45.74L187.14,46.12L186.43,46.40L185.62,46.45L185.30,46.39L184.74,46.28L183.82,45.90L182.89,45.32L182.04,44.60L181.98,44.55L181.13,43.63L180.36,42.58L179.71,41.44L179.18,40.25"/><path d="M178.90,34.18L179.15,33.83L179.70,33.23L180.37,32.83L188.46,28.16L189.24,27.97L189.68,27.93L190.53,27.96L191.43,28.19L192.37,28.63L193.30,29.26L194.21,30.05L195.06,31.00L195.83,32.06L196.50,33.21L197.04,34.40L197.44,35.61L197.69,36.80L197.78,37.93L197.70,38.97L197.47,39.88L197.08,40.63L196.83,40.99L196.28,41.59L195.60,41.99L187.52,46.66L186.73,46.85L186.30,46.89"/><path d="M181.56,43.32L180.82,42.30L180.18,41.19"/><path d="M180.47,33.74L181.13,33.49"/><path d="M186.67,35.78L187.46,36.87L188.15,38.05"/><path d="M187.52,46.66L188.19,46.26L188.74,45.66"/><path d="M187.41,45.75L187.96,45.30"/><path d="M196.23,33.38L195.55,32.20L194.76,31.11"/></g></g><g id="PMI3.0"><g/><g><text xml:space="preserve" fill="#000000" stroke-width="0" x="128.43" y="128.39" font-size="2.95" opacity="1.00" font-family="Rogan">3</text></g></g><g id="PMI2.0"><g/><g><text xml:space="preserve" fill="#000000" stroke-width="0" x="181.38" y="27.27" font-size="2.91" opacity="1.00" font-family="Rogan">2</text></g></g><g id="PMI4.0"><g/><g><text xml:space="preserve" fill="#000000" stroke-width="0" x="161.20" y="35.52" font-size="3.08" opacity="1.00" font-family="Rogan">4</text></g></g><g id="PMI1.0"><g/><g><text xml:space="preserve" fill="#000000" stroke-width="0" x="98.92" y="15.34" font-size="2.93" opacity="1.00" font-family="Rogan">1</text></g></g><g id="PMI4.1"><g/><g><text xml:space="preserve" fill="#000000" stroke-width="0" x="79.61" y="82.82" font-size="3.08" opacity="1.00" font-family="Rogan">4</text></g></g><g id="PMI2.1"><g/><g><text xml:space="preserve" fill="#000000" stroke-width="0" x="59.87" y="96.49" font-size="2.91" opacity="1.00" font-family="Rogan">2</text></g></g><g/><g/><g id="paperID" visibility="hidden" opacity="0.00" transform="scale(0.000100)"><path style="stroke:#000000;stroke-width:0.500;fill:#e6e6e6;fill-rule:evenodd" d="M-2000.00,-2000.00L2256.00,-2000.00L2256.00,2160.00L-2000.00,2160.00zM0.00,0.00L256.00,0.00L256.00,160.00L0.00,160.00z"/><path style="fill:#000000;fill-opacity:0.118" d="M3.00,160.00L256.00,160.00L256.00,3.00L259.00,3.00L259.00,163.00L3.00,163.00z"/></g><g><g><path style="stroke:#000000;stroke-width:0.353;fill:#f0f0ff" d="M177.22,140.61L254.91,140.61L254.91,144.27L177.22,144.27z"/><text xml:space="preserve" fill="#000000" stroke-width="0" x="178.63" y="143.43" font-size="2.49" opacity="1.00" font-family="Rogan" font-weight="bold">ITEM NO.</text><text xml:space="preserve" fill="#000000" stroke-width="0" x="190.58" y="143.43" font-size="2.53" opacity="1.00" font-family="Rogan" font-weight="bold">PART NUMBER</text><text xml:space="preserve" fill="#000000" stroke-width="0" x="208.66" y="143.43" font-size="2.52" opacity="1.00" font-family="Rogan" font-weight="bold">DESCRIPTION</text><text xml:space="preserve" fill="#000000" stroke-width="0" x="249.10" y="143.43" font-size="2.40" opacity="1.00" font-family="Rogan" font-weight="bold">QTY.</text><path style="stroke:#000000;stroke-width:0.353" d="M189.17,140.61L189.17,144.27"/><path style="stroke:#000000;stroke-width:0.353" d="M207.25,140.61L207.25,144.27"/><path style="stroke:#000000;stroke-width:0.353" d="M247.69,140.61L247.69,144.27"/></g><g id="Line1"><path style="stroke:#000000;stroke-width:0.353;fill:#ffffff" d="M177.22,144.27L254.91,144.27L254.91,147.94L177.22,147.94z"/><text xml:space="preserve" fill="#000000" stroke-width="0" x="178.63" y="147.10" font-size="2.32" opacity="1.00" font-family="Rogan">1</text><text xml:space="preserve" fill="#000000" stroke-width="0" x="190.58" y="147.10" font-size="2.59" opacity="1.00" font-family="Rogan">3-HF-0110</text><text xml:space="preserve" fill="#000000" stroke-width="0" x="208.66" y="147.10" font-size="2.62" opacity="1.00" font-family="Rogan">ADAPTOR, 6L x 1/8 BSPP, STAINLESS</text><text xml:space="preserve" fill="#000000" stroke-width="0" x="249.10" y="147.10" font-size="2.29" opacity="1.00" font-family="Rogan">2</text><path style="stroke:#000000;stroke-width:0.353" d="M189.17,144.27L189.17,147.94"/><path style="stroke:#000000;stroke-width:0.353" d="M207.25,144.27L207.25,147.94"/><path style="stroke:#000000;stroke-width:0.353" d="M247.69,144.27L247.69,147.94"/></g><g id="Line2"><path style="stroke:#000000;stroke-width:0.353;fill:#f0f0ff" d="M177.22,147.94L254.91,147.94L254.91,151.61L177.22,151.61z"/><text xml:space="preserve" fill="#000000" stroke-width="0" x="178.63" y="150.76" font-size="2.29" opacity="1.00" font-family="Rogan">2</text><text xml:space="preserve" fill="#000000" stroke-width="0" x="190.58" y="150.76" font-size="2.60" opacity="1.00" font-family="Rogan">1-001-409</text><text xml:space="preserve" fill="#000000" stroke-width="0" x="208.66" y="150.76" font-size="2.60" opacity="1.00" font-family="Rogan">CJ BUSH, ID 40 x 36 x 2.5</text><text xml:space="preserve" fill="#000000" stroke-width="0" x="249.10" y="150.76" font-size="2.29" opacity="1.00" font-family="Rogan">2</text><path style="stroke:#000000;stroke-width:0.353" d="M189.17,147.94L189.17,151.61"/><path style="stroke:#000000;stroke-width:0.353" d="M207.25,147.94L207.25,151.61"/><path style="stroke:#000000;stroke-width:0.353" d="M247.69,147.94L247.69,151.61"/></g><g id="Line3"><path style="stroke:#000000;stroke-width:0.353;fill:#ffffff" d="M177.22,151.61L254.91,151.61L254.91,155.28L177.22,155.28z"/><text xml:space="preserve" fill="#000000" stroke-width="0" x="178.63" y="154.43" font-size="2.33" opacity="1.00" font-family="Rogan">3</text><text xml:space="preserve" fill="#000000" stroke-width="0" x="190.58" y="154.43" font-size="2.59" opacity="1.00" font-family="Rogan">1-000-182</text><text xml:space="preserve" fill="#000000" stroke-width="0" x="208.66" y="154.43" font-size="2.61" opacity="1.00" font-family="Rogan">CJ BUSH, ID 30 x 40 x 2.5</text><text xml:space="preserve" fill="#000000" stroke-width="0" x="249.10" y="154.43" font-size="2.29" opacity="1.00" font-family="Rogan">2</text><path style="stroke:#000000;stroke-width:0.353" d="M189.17,151.61L189.17,155.28"/><path style="stroke:#000000;stroke-width:0.353" d="M207.25,151.61L207.25,155.28"/><path style="stroke:#000000;stroke-width:0.353" d="M247.69,151.61L247.69,155.28"/></g><g id="Line4"><path style="stroke:#000000;stroke-width:0.353;fill:#f0f0ff" d="M177.22,155.28L254.91,155.28L254.91,158.95L177.22,158.95z"/><text xml:space="preserve" fill="#000000" stroke-width="0" x="178.63" y="158.10" font-size="2.44" opacity="1.00" font-family="Rogan">4</text><text xml:space="preserve" fill="#000000" stroke-width="0" x="190.58" y="158.10" font-size="2.58" opacity="1.00" font-family="Rogan">1-001-116</text><text xml:space="preserve" fill="#000000" stroke-width="0" x="208.66" y="158.10" font-size="2.63" opacity="1.00" font-family="Rogan">WASHER, THRUST, ACET, 40 x 60 x 5</text><text xml:space="preserve" fill="#000000" stroke-width="0" x="249.10" y="158.10" font-size="2.29" opacity="1.00" font-family="Rogan">2</text><path style="stroke:#000000;stroke-width:0.353" d="M189.17,155.28L189.17,158.95"/><path style="stroke:#000000;stroke-width:0.353" d="M207.25,155.28L207.25,158.95"/><path style="stroke:#000000;stroke-width:0.353" d="M247.69,155.28L247.69,158.95"/></g></g><g id="hotspot.0" ident="" onmouseover="ShowHotSpot(evt,&apos;0&apos;)" onmouseout="HideHotSpot(evt,&apos;0&apos;)" onmousemove="ShowToolTip(evt,&apos;0&apos;,&quot;3-HF-0110&quot;)" opacity="0"><path style="fill:#00ff00;fill-rule:evenodd" d="M177.22,144.27L177.22,147.94L254.91,147.94L254.91,144.27zM110.40,13.87L110.84,15.43L110.74,16.14L111.48,16.30L111.72,16.71L111.95,18.56L111.41,19.11L111.95,20.97L111.63,21.32L110.33,22.00L109.05,22.02L108.63,21.35L108.18,20.04L107.33,19.58L106.81,17.58L107.31,16.96L106.87,16.53L106.65,15.87L106.67,14.40L107.68,13.66L108.57,13.45L109.75,13.43zM99.23,13.93L99.12,13.46L99.88,13.43L100.04,15.03L100.34,15.47L99.11,15.47L99.41,15.04L99.44,13.91zM98.35,21.54L98.79,23.09L98.69,23.81L99.45,23.95L99.88,24.61L99.89,26.24L99.36,26.78L99.89,28.64L99.57,29.00L98.28,29.67L97.00,29.68L96.56,29.25L96.13,27.70L95.43,27.52L94.81,26.84L94.81,25.33L95.26,24.62L94.84,24.40L94.30,22.42L95.20,21.55L96.51,21.11L97.69,21.11z"/></g><g id="hotspot.1" ident="" onmouseover="ShowHotSpot(evt,&apos;1&apos;)" onmouseout="HideHotSpot(evt,&apos;1&apos;)" onmousemove="ShowToolTip(evt,&apos;1&apos;,&quot;1-001-409&quot;)" opacity="0"><path style="fill:#00ff00;fill-rule:evenodd" d="M177.22,147.94L177.22,151.61L254.91,151.61L254.91,147.94zM182.97,25.47L182.94,26.44L181.96,26.84L181.96,27.09L182.96,27.25L181.54,27.33L181.62,26.44L182.56,26.01L182.51,25.70L182.02,25.72L181.79,26.02L181.56,26.03L181.61,25.34L182.75,25.25zM191.49,28.35L193.71,29.64L195.45,31.61L196.75,33.83L197.62,36.46L197.63,39.38L197.19,40.48L196.34,41.60L187.48,46.77L184.68,46.77L183.37,46.11L181.86,44.99L180.55,43.45L179.45,41.70L178.54,39.32L178.34,38.21L178.33,35.86L178.77,34.55L180.02,33.17L188.35,28.35L189.00,28.12L190.83,28.12zM61.55,94.74L61.55,95.51L60.53,96.06L61.56,96.31L61.55,96.56L60.12,96.59L60.15,95.65L60.47,95.35L61.12,95.26L61.09,94.98L60.58,94.96L60.47,95.35L60.12,95.28L60.11,94.54L61.32,94.51zM72.25,97.39L74.26,98.68L76.00,100.66L77.51,103.31L78.17,105.72L78.17,108.20L77.96,109.08L76.99,110.53L67.81,115.81L65.45,115.81L63.50,114.91L61.75,113.37L60.00,110.74L58.88,107.48L58.88,104.69L59.25,103.53L60.34,102.21L69.17,97.23L71.60,97.17zM61.12,95.26L60.47,95.35L60.58,94.96L61.09,94.98z"/></g><g id="hotspot.2" ident="" onmouseover="ShowHotSpot(evt,&apos;2&apos;)" onmouseout="HideHotSpot(evt,&apos;2&apos;)" onmousemove="ShowToolTip(evt,&apos;2&apos;,&quot;1-000-182&quot;)" opacity="0"><path style="fill:#00ff00;fill-rule:evenodd" d="M177.22,151.61L177.22,155.28L254.91,155.28L254.91,151.61zM124.86,109.66L126.40,110.53L127.50,112.28L127.49,123.98L127.26,124.63L126.18,125.96L123.70,126.99L119.59,126.99L117.62,126.32L116.32,125.43L115.64,124.14L115.64,112.13L116.74,110.60L117.77,109.88L119.97,109.23L123.10,109.23zM130.14,126.76L130.15,128.15L129.90,128.58L128.73,128.58L128.54,128.31L128.52,127.83L128.75,127.85L128.98,128.13L129.63,128.08L129.71,127.82L128.95,127.43L129.71,127.08L129.48,126.73L129.18,126.73L128.92,126.97L128.50,127.06L128.56,126.63L128.94,126.30L129.69,126.30zM125.30,131.80L126.63,132.66L127.50,133.98L127.50,145.91L126.77,147.16L125.29,148.31L123.03,148.90L119.81,148.90L117.85,148.24L116.76,147.57L115.87,146.49L115.64,146.06L115.64,134.05L116.21,132.87L117.33,132.02L118.64,131.36L119.53,131.14L123.54,131.14z"/></g><g id="hotspot.3" ident="" onmouseover="ShowHotSpot(evt,&apos;3&apos;)" onmouseout="HideHotSpot(evt,&apos;3&apos;)" onmousemove="ShowToolTip(evt,&apos;3&apos;,&quot;1-001-116&quot;)" opacity="0"><path style="fill:#00ff00;fill-rule:evenodd" d="M177.22,155.28L177.22,158.95L254.91,158.95L254.91,155.28zM162.80,35.22L162.53,35.68L162.31,35.66L162.11,35.38L161.14,35.21L161.35,34.68L162.07,33.60L162.55,33.58zM170.23,40.62L172.44,42.79L173.76,44.54L175.27,47.20L176.36,50.93L176.36,54.06L175.86,55.76L174.74,57.05L173.24,57.95L170.65,57.95L168.50,57.04L166.74,55.72L165.20,54.19L163.22,51.14L162.11,48.74L161.46,45.88L161.45,43.10L162.26,40.84L163.65,39.59L164.67,39.08L167.16,39.08zM81.27,82.56L81.00,83.02L80.77,83.00L80.57,82.73L79.61,82.55L79.71,81.91L80.51,80.91L81.02,80.93zM87.16,85.77L88.91,86.65L91.08,88.42L92.88,90.57L94.83,94.10L95.70,97.17L95.71,100.97L95.26,102.28L94.30,103.51L92.65,104.49L91.12,104.64L89.13,104.19L86.52,102.63L84.77,100.88L83.21,98.71L81.68,95.64L81.01,93.23L80.73,90.60L81.17,88.40L82.26,86.64L84.08,85.61L86.28,85.55zM162.10,34.76L161.82,34.69L162.15,34.51zM168.69,42.81L170.23,43.91L171.12,44.99L172.23,46.51L173.07,48.30L173.73,50.71L173.73,52.31L173.46,53.57L172.80,54.23L171.09,54.22L168.93,53.10L167.16,51.14L166.28,49.83L165.39,47.87L164.97,45.66L164.97,44.64L165.42,42.90L166.19,42.14L167.16,42.15zM80.57,82.10L80.29,82.03L80.61,81.85zM86.94,89.72L88.69,90.82L90.04,92.32L91.76,95.42L92.20,97.17L92.20,99.66L91.98,100.31L91.25,101.33L89.78,101.35L87.62,100.22L85.84,98.27L84.52,96.30L83.65,93.67L83.64,90.65L84.23,89.49L84.66,89.27L85.85,89.28z"/></g></g></svg>